{"title":"Mauvais Sang AKA The.Night.Is.Young.1986.720p.BluRay.x264-SPLiTS","uid":10711863,"size":4686185019,"categoryP":"video","categoryS":"hd___movies","magnet":"?xt=urn:btih:5baabde23a228fb9b120e87f05834f71cee9993d&amp;dn=Mauvais+Sang+AKA+The.Night.Is.Young.1986.720p.BluRay.x264-SPLiTS&amp;tr=udp%3A%2F%2Ftracker.openbittorrent.com%3A80&amp;tr=udp%3A%2F%2Fopen.demonii.com%3A1337&amp;tr=udp%3A%2F%2Ftracker.coppersurfer.tk%3A6969&amp;tr=udp%3A%2F%2Fexodus.desync.com%3A6969","seeders":17,"leechers":1,"uploader":"rpessoa","files":1,"time":1407366583,"description":"Marc (Michel Piccoli) recruits Alex (Denis Lavant), son of his former, now dead colleague. Alex is a card shark with a big dream to go out to the world and leave his own mark. His determination leads him to break up with his girl friend, Lise (Julie Deply). Alex initially refuses to help Marc and Hans for their &quot;job&quot; of stealing the culture of new drug. But Anna (Juliette Binoche)'s charm and beauty were irresistible. Alex joins the elders. Alex's dance to David Bowie's Modern Love illustrates unfolding emotions of young Alex moving into an adult (graying if not dying) world. The interplay among the generations, between genders, among social classes, memory and hopes, all played against black and white and occasional red back drop. Anna's cobalt blue robe punctuates the moment when Alex confesses his love for her. Written by\n &lt;a href=&quot;\nhttp://www.imdb.com/title/tt0091497/&quot; rel=&quot;nofollow&quot; target=&quot;_NEW&quot;&gt;\nhttp://www.imdb.com/title/tt0091497/&lt;/a&gt;\n\nGeneral\nUnique ID : 198996469195686717096866906733105026605 (0x95B5536D3539D750B71E003D59BE962D)\nComplete name : tniy-720p-splits.mkv\nFormat : Matroska\nFormat version : Version 2\nFile size : 4.36 GiB\nDuration : 1h 58mn\nOverall bit rate : 5 254 Kbps\nEncoded date : UTC 2014-06-25 21:01:32\nWriting application : mkvmerge v6.5.0 ('Isn't she lovely') built on Oct 20 2013 12:50:05\nWriting library : libebml v1.3.0 + libmatroska v1.4.1\n\nVideo\nID : 1\nFormat : AVC\nFormat/Info : Advanced Video Codec\nFormat profile : &lt;a class=&quot;__cf_email__&quot; href=&quot;/cdn-cgi/l/email-protection&quot; data-cfemail=&quot;642c0d030c2428504a55&quot;&gt;[email&amp;#160;protected]&lt;/a&gt;&lt;script cf-hash='f9e31' type=&quot;text/javascript&quot;&gt;\n/* &lt;![CDATA[ */!function(){try{var t=&quot;currentScript&quot;in document?document.currentScript:function(){for(var t=document.getElementsByTagName(&quot;script&quot;),e=t.length;e--;)if(t[e].getAttribute(&quot;cf-hash&quot;))return t[e]}();if(t&amp;&amp;t.previousSibling){var e,r,n,i,c=t.previousSibling,a=c.getAttribute(&quot;data-cfemail&quot;);if(a){for(e=&quot;&quot;,r=parseInt(a.substr(0,2),16),n=2;a.length-n;n+=2)i=parseInt(a.substr(n,2),16)^r,e+=String.fromCharCode(i);e=document.createTextNode(e),c.parentNode.replaceChild(e,c)}}}catch(u){}}();/* ]]&gt; */&lt;/script&gt;\nFormat settings, CABAC : Yes\nFormat settings, ReFrames : 5 frames\nCodec ID : V_MPEG4/ISO/AVC\nDuration : 1h 58mn\nBit rate : 4 614 Kbps\nWidth : 1 200 pixels\nHeight : 720 pixels\nDisplay aspect ratio : 1.667\nFrame rate : 24.000 fps\nColor space : YUV\nChroma subsampling : 4:2:0\nBit depth : 8 bits\nScan type : Progressive\nBits/(Pixel*Frame) : 0.223\nStream size : 3.75 GiB (86%)\nWriting library : x264 core 142 r2431 ac76440\nEncoding settings : cabac=1 / ref=5 / deblock=1:0:0 / analyse=0x3:0x133 / me=umh / subme=8 / psy=1 / psy_rd=1.00:0.00 / mixed_ref=1 / me_range=16 / chroma_me=1 / trellis=1 / 8x8dct=1 / cqm=0 / deadzone=21,11 / fast_pskip=0 / chroma_qp_offset=-2 / threads=12 / lookahead_threads=2 / sliced_threads=0 / nr=0 / decimate=1 / interlaced=0 / bluray_compat=0 / constrained_intra=0 / bframes=3 / b_pyramid=2 / b_adapt=2 / b_bias=0 / direct=3 / weightb=1 / open_gop=0 / weightp=2 / keyint=250 / keyint_min=24 / scenecut=40 / intra_refresh=0 / rc_lookahead=50 / rc=2pass / mbtree=1 / bitrate=4614 / ratetol=1.0 / qcomp=0.60 / qpmin=0 / qpmax=69 / qpstep=4 / cplxblur=20.0 / qblur=0.5 / ip_ratio=1.40 / aq=1:1.00\nLanguage : English\nDefault : Yes\nForced : No\n\nAudio\nID : 2\nFormat : AC-3\nFormat/Info : Audio Coding 3\nMode extension : CM (complete main)\nCodec ID : A_AC3\nDuration : 1h 58mn\nBit rate mode : Constant\nBit rate : 640 Kbps\nChannel(s) : 2 channels\nChannel positions : Front: L R\nSampling rate : 48.0 KHz\nBit depth : 16 bits\nCompression mode : Lossy\nStream size : 544 MiB (12%)\nLanguage : French\nDefault : Yes\nForced : No\n\nText\nID : 3\nFormat : UTF-8\nCodec ID : S_TEXT/UTF8\nCodec ID/Info : UTF-8 Plain Text\nLanguage : English\nDefault : Yes\nForced : No\n\nMenu\n00:00:00.000 : en:00:00:00.000\n00:06:31.542 : en:00:06:31.542\n00:18:43.375 : en:00:18:43.375\n00:33:12.333 : en:00:33:12.333\n00:46:25.083 : en:00:46:25.083\n01:04:45.667 : en:01:04:45.667\n01:13:11.167 : en:01:13:11.167\n01:22:32.125 : en:01:22:32.125\n01:33:07.042 : en:01:33:07.042\n01:40:43.125 : en:01:40:43.125\n01:52:36.542 : en:01:52:36.542\n01:57:14.917 : en:01:57:14.917","torrent":{"xt":"urn:btih:5baabde23a228fb9b120e87f05834f71cee9993d","amp;dn":"Mauvais+Sang+AKA+The.Night.Is.Young.1986.720p.BluRay.x264-SPLiTS","amp;tr":["udp%3A%2F%2Ftracker.openbittorrent.com%3A80","udp%3A%2F%2Fopen.demonii.com%3A1337","udp%3A%2F%2Ftracker.coppersurfer.tk%3A6969","udp%3A%2F%2Fexodus.desync.com%3A6969"],"infoHash":"5baabde23a228fb9b120e87f05834f71cee9993d","infoHashBuffer":{"type":"Buffer","data":[91,170,189,226,58,34,143,185,177,32,232,127,5,131,79,113,206,233,153,61]},"announce":[],"urlList":[]}}